<?xml version="1.0" encoding="iso-8859-1"?>
<!-- Generator: Adobe Illustrator 18.0.0, SVG Export Plug-In . SVG Version: 6.00 Build 0)  -->
<!DOCTYPE svg PUBLIC "-//W3C//DTD SVG 1.1//EN" "http://www.w3.org/Graphics/SVG/1.1/DTD/svg11.dtd">
<svg xmlns="http://www.w3.org/2000/svg" xmlns:xlink="http://www.w3.org/1999/xlink" version="1.1" id="Capa_1" x="0px" y="0px" viewBox="0 0 487.157 487.157" style="enable-background:new 0 0 487.157 487.157;" xml:space="preserve" width="512px" height="512px">
<g id="XMLID_303_">
	<path id="XMLID_243_" d="M434.443,265.552c-3.932,10.683-8.676,21.286-14.64,31.58c-29.842,51.51-79.706,82.619-117.439,100.004   c8.455,1.074,17.306,1.863,26.628,1.863c19.511,0,40.367-2.945,60.251-11.313c67.257-28.33,97.913-107.989,97.913-107.989   S465.138,270.241,434.443,265.552z" fill="#7be0d0"/>
	<path id="XMLID_244_" d="M67.353,297.116c-5.954-10.293-10.706-20.889-14.631-31.563C22.018,270.241,0,279.698,0,279.698   s30.647,79.659,97.913,107.989C117.789,396.054,138.645,399,158.165,399c9.322,0,18.181-0.789,26.635-1.863   C147.059,379.752,97.197,348.635,67.353,297.116z" fill="#7be0d0"/>
	<path id="XMLID_245_" d="M308.184,356.26c29.215-16.142,61.709-40.565,82.303-76.115c44.943-77.646,15.944-178.48,15.944-178.48   s-42.325,10.516-84.452,38.711c13.588,27.177,24.343,59.965,24.343,95.707C346.322,283.368,327.496,325.478,308.184,356.26z" fill="#7be0d0"/>
	<path id="XMLID_246_" d="M178.981,356.26c-19.313-30.782-38.139-72.892-38.139-120.177c0-35.742,10.755-68.53,24.343-95.707   c-42.127-28.195-84.452-38.711-84.452-38.711S51.735,202.5,96.679,280.145C117.272,315.695,149.767,340.118,178.981,356.26z" fill="#7be0d0"/>
	<path id="XMLID_247_" d="M243.586,88.157c0,0-68.864,66.223-68.864,147.927c0,81.689,68.864,147.919,68.864,147.919   s68.858-66.229,68.858-147.919C312.444,154.38,243.586,88.157,243.586,88.157z" fill="#7be0d0"/>
</g>
<g>
</g>
<g>
</g>
<g>
</g>
<g>
</g>
<g>
</g>
<g>
</g>
<g>
</g>
<g>
</g>
<g>
</g>
<g>
</g>
<g>
</g>
<g>
</g>
<g>
</g>
<g>
</g>
<g>
</g>
</svg>
